<mxfile host="app.diagrams.net" modified="2023-11-13T05:34:06.783Z" agent="Mozilla/5.0 (Macintosh; Intel Mac OS X 10_15_7) AppleWebKit/537.36 (KHTML, like Gecko) Chrome/119.0.0.0 Safari/537.36" version="22.1.0" etag="XzdYtGhNZg_6zaJq4I6-" type="github">
  <diagram name="Page-1" id="smkl9wkI0RQhg8Fnq2xX">
    <mxGraphModel>
      <root>
        <mxCell id="0" />
        <mxCell id="1" parent="0" />
      </root>
    </mxGraphModel>
  </diagram>
</mxfile>
